<?xml version="1.0" encoding="utf-8"?>
<!-- Generator: Adobe Illustrator 23.0.2, SVG Export Plug-In . SVG Version: 6.00 Build 0)  -->
<svg version="1.1" id="Layer_1" xmlns="http://www.w3.org/2000/svg" xmlns:xlink="http://www.w3.org/1999/xlink" x="0px" y="0px"
	 viewBox="0 0 112.2 112.2" style="enable-background:new 0 0 112.2 112.2;" xml:space="preserve">
<style type="text/css">
	.st0{fill:#0E76A8;}
	.st1{fill:#FFFFFF;}
</style>
<g>
	<path class="st0" d="M56.5,0.4c31,0,56.1,25.1,56.1,56.1s-25.1,56.1-56.1,56.1S0.4,87.5,0.4,56.5S25.6,0.4,56.5,0.4z"/>
	<path class="st1" d="M32.1,77.5h10.5v-35H32.1V77.5z M73,41.3c-5.1,0-9.7,1.9-12.9,6v-4.9H49.5v35.1h10.5v-19c0-4,3.7-7.9,8.3-7.9
		s5.7,3.9,5.7,7.8v19.1h10.5V57.6C84.6,43.8,78.1,41.3,73,41.3z M37.3,39c2.9,0,5.3-2.4,5.3-5.3s-2.4-5.3-5.3-5.3
		c-2.9,0-5.3,2.4-5.3,5.3S34.4,39,37.3,39z"/>
</g>
</svg>
