<?xml version="1.0" encoding="utf-8"?>
<!-- Generator: Adobe Illustrator 23.0.2, SVG Export Plug-In . SVG Version: 6.00 Build 0)  -->
<svg version="1.1" id="Capa_1" xmlns="http://www.w3.org/2000/svg" xmlns:xlink="http://www.w3.org/1999/xlink" x="0px" y="0px"
	 viewBox="0 0 1497 396" style="enable-background:new 0 0 1497 396;" xml:space="preserve">
<style type="text/css">
	.st0{fill:#6BBAA7;}
</style>
<title>Logo-Focus</title>
<path class="st0" d="M46,41.3h174v50H97.7v60.2h94.4v50H97.7v122.3H46V41.3z"/>
<path class="st0" d="M695.6,311.3c-21.7-11.8-39.4-29.7-51.1-51.5c-12.1-22.2-18.2-48-18.2-77.3c0-29.1,6.3-54.7,18.8-76.9
	c12.1-21.8,30.2-39.7,52.1-51.7c22.2-12.2,47.4-18.4,75.7-18.4c27.2,0,51.5,5.5,73.1,16.5l-5.7,49.2c-10.8-4.8-21.9-8.8-33.3-11.9
	c-11.3-2.9-22.9-4.3-34.5-4.2c-28.8,0-50.9,8.9-66.4,26.6s-23.2,41.3-23.2,70.6c0,29.3,7.6,52.9,22.8,70.6s37.1,26.6,65.6,26.6
	c11.8,0.1,23.5-1.2,34.9-4c11.7-3.1,23.1-7.1,34.1-12.1l5.7,49.2c-23.3,11-48.9,16.7-74.7,16.5C742.8,329.5,717.6,323.4,695.6,311.3
	z"/>
<path class="st0" d="M955.8,295.8c-19.6-22.5-29.5-53.5-29.5-93V41.3H978v148.1c0,19.7,1.8,36,5.2,49c3.5,13,10,23.2,19.5,30.6
	c9.6,7.3,23.1,10.9,40.6,10.9s31-3.6,40.6-10.9c9.6-7.3,16.1-17.4,19.6-30.5c3.5-13.1,5.2-29.4,5.2-49V41.3h51.7v161.4
	c0,39.6-9.8,70.6-29.5,93c-19.6,22.4-48.8,33.7-87.6,33.7C1004.6,329.5,975.4,318.3,955.8,295.8z"/>
<path class="st0" d="M1290.6,323c-18.2-4.3-32.4-9-42.6-14.1l6-54.9c35.5,17.2,66.7,25.8,93.6,25.8c14.3,0,25.4-2.8,33.5-8.3
	c8.1-5.5,12.1-13.7,12.1-24.4c0-8.1-2.2-14.7-6.7-20s-10.8-9.7-19.2-13.3c-8.4-3.6-21.7-8.7-40-15.1c-17.2-5.9-31.5-12.2-42.8-18.8
	c-10.9-6.2-20.1-14.9-26.8-25.4c-6.5-10.3-9.8-23-9.8-38.1c0-24.2,8.9-43.7,26.6-58.5c17.8-14.8,43.2-22.2,76.3-22.2
	c15.7,0,31.3,1.8,46.6,5.2c14.5,3.2,28.7,7.5,42.6,12.9l-5.2,52.9c-14.9-6.6-30.2-12.1-45.9-16.4c-13.5-3.6-27.4-5.4-41.4-5.4
	c-15.3,0-27,2.6-35.1,7.7s-12.1,12.5-12.1,22.2c0,7.5,2.2,13.7,6.5,18.6s10.2,8.9,17.6,12.1c7.4,3.2,18.4,7.1,32.9,11.7
	c32.6,10.2,56.3,22,71.2,35.3c14.9,13.3,22.4,31.5,22.4,54.7c0,22.1-7.7,41.3-23,57.7c-15.3,16.4-44.1,24.6-86.4,24.6
	C1324.4,329.3,1307.3,327.1,1290.6,323z"/>
<path class="st0" d="M346.8,91.2c41.1-32,98.7-32,139.8,0L510,67.9c-54.2-44.6-132.3-44.6-186.5,0L346.8,91.2z"/>
<path class="st0" d="M530.3,88.2L507,111.6c32,41.1,32,98.7,0,139.8l23.3,23.3C574.9,220.6,574.9,142.4,530.3,88.2L530.3,88.2z"/>
<path class="st0" d="M326.5,251.4c-32-41.1-32-98.7,0-139.8l-23.3-23.3c-44.6,54.2-44.6,132.3,0,186.5L326.5,251.4z"/>
<path class="st0" d="M510,295.1l-23.3-23.3c-41.1,32-98.7,32-139.8,0l-23.4,23.3c10.1,8.3,21.2,15.2,33.1,20.6v56.1l41.7-44.4
	C438.4,332.5,478.8,320.8,510,295.1z"/>
<path class="st0" d="M431.1,115.7c27.1,5.7,48.3,26.9,54,54h24.4c-6.3-40.4-38-72-78.4-78.4L431.1,115.7z"/>
<path class="st0" d="M348.4,169.6c5.7-27.1,26.9-48.3,54-54V91.2c-40.4,6.3-72.1,38-78.4,78.4H348.4z"/>
<path class="st0" d="M402.4,252.4c-27.1-5.7-48.3-26.9-54-54H324c6.3,40.4,38,72,78.4,78.4L402.4,252.4z"/>
<path class="st0" d="M485.1,198.4c-5.7,27.1-26.9,48.3-54,54v24.4c40.4-6.3,72-38,78.4-78.4L485.1,198.4z"/>
</svg>
