<?xml version="1.0" encoding="utf-8"?>
<!-- Generator: Adobe Illustrator 23.0.2, SVG Export Plug-In . SVG Version: 6.00 Build 0)  -->
<svg version="1.1" id="Capa_1" xmlns="http://www.w3.org/2000/svg" xmlns:xlink="http://www.w3.org/1999/xlink" x="0px" y="0px"
	 viewBox="0 0 112.2 112.2" style="enable-background:new 0 0 112.2 112.2;" xml:space="preserve">
<style type="text/css">
	.st0{fill:#FFFFFF;}
</style>
<path class="st0" d="M56.1,2.4C25.1,2.4,0,27,0,57.5c0,24.4,16.1,45,38.3,52.3c2.8,0.5,3.8-1.2,3.8-2.7c0-1.3,0-4.8-0.1-9.4
	c-15.6,3.3-18.9-7.4-18.9-7.4c-2.4-6.3-6.1-8-6.1-8c-5.1-3.4,0.4-3.4,0.4-3.4c5.6,0.4,8.6,5.7,8.6,5.7c5,8.4,13.1,6,16.3,4.6
	c0.5-3.6,2-6,3.5-7.4c-12.5-1.4-25.6-6.1-25.6-27.2c0-6,2.2-10.9,5.8-14.8c-0.6-1.4-2.5-7,0.5-14.6c0,0,4.7-1.5,15.4,5.7
	c4.5-1.2,9.2-1.8,14-1.9c4.8,0,9.5,0.6,14,1.9c10.6-7.1,15.4-5.7,15.4-5.7c3,7.6,1.1,13.2,0.6,14.6c3.6,3.9,5.7,8.8,5.7,14.8
	c0,21.2-13.1,25.8-25.6,27.2c2,1.7,3.8,5,3.8,10.2c0,7.4-0.1,13.3-0.1,15.1c0,1.4,1,3.2,3.9,2.6c22.4-7.2,38.5-27.9,38.5-52.2
	C112.2,27,87.1,2.4,56.1,2.4z"/>
</svg>
